<svg version="1" xmlns="http://www.w3.org/2000/svg" width="1541.333" height="1541.333" viewBox="0 0 1156.000000 1156.000000"><path d="M194.9 6.8l-12.6.3.1 155.2.1 155.2 88.3.2c48.6.1 88.6.4 88.9.6.2.3.4 3.4.3 6.9-.1 3.4-.1 7-.1 7.8v8.5c-.1 3.8-.1 7.7 0 8.5v16.7c.2 2.9.2 5.3.2 15.8 0 6 .1 13.6.2 16.8.1 3.1-.2 5.7-.6 5.7-.5 0-.6.4-.3.9.4.6.7 16 .5 23.1-.1 2.8 0 20.5.2 24.5.1 2.2.1 4.7.1 5.5-.2 3.4-.1 30.9.1 36.3.1 3.1-.2 5.7-.6 5.7-.5 0-.6.4-.3.9.4.6.7 16 .5 23.1-.1 2.8 0 20.5.2 24.5.1 2.2.1 4.7.1 5.5-.2 3.4-.1 30.9.1 36.3.1 3.1-.2 5.7-.6 5.7-.5 0-.5.4-.2 1 .3.5.5 5.7.5 11.5-.1 5.8-.1 11.1-.1 11.7v40.3c-.1 3.8-.1 7.7 0 8.5v16.7c.1.7.1 1.9.2 2.5.1 2 0 17.9-.2 22.3-.1 2.2-.1 4.7 0 5.5v8.5c-.1 3.8-.1 7.7 0 8.5v16.7c.1.7.1 1.9.2 2.5V795c0 8 .1 17.1.2 20.3.1 3.1-.2 5.7-.6 5.7-.5 0-.5.4-.2 1 .3.5.5 5.8.5 11.7-.1 5.9-.1 12.2 0 14l.1 3.2h-80.3c-44.2 0-84.2 0-88.9.1h-8.6v305H978V851h-4.7c-2.7 0-41.7-.1-86.8-.1l-82-.1.1-266.1c.1-146.4.2-266.4.3-266.7 0-.3 39-.4 86.6-.3l86.5.1V162.4c0-85.5-.3-155.4-.7-155.4-4.5-.2-773.1-.4-782.4-.2z"/></svg>